<svg width="278" height="101" viewBox="0 0 278 101" fill="none" xmlns="http://www.w3.org/2000/svg">
<path d="M1.77841 77L10.4716 24.6364H31.1307C35.0852 24.6364 38.3324 25.3949 40.8722 26.9119C43.429 28.4119 45.2188 30.5 46.2415 33.1761C47.2813 35.8352 47.5199 38.9034 46.9574 42.3807C46.3778 45.875 45.1165 48.9517 43.1733 51.6108C41.2472 54.2528 38.7415 56.3153 35.6562 57.7983C32.571 59.2812 29.0085 60.0227 24.9688 60.0227H11.8011L13.2585 51.1506H24.6364C26.7841 51.1506 28.6165 50.7841 30.1335 50.0511C31.6676 49.3011 32.8864 48.2699 33.7898 46.9574C34.6932 45.6278 35.2813 44.1023 35.554 42.3807C35.8438 40.625 35.75 39.0994 35.2727 37.804C34.7955 36.5085 33.9176 35.5028 32.6392 34.7869C31.3778 34.054 29.6818 33.6875 27.5511 33.6875H20.0852L12.8494 77H1.77841ZM48.1911 77L54.7365 37.7273H65.2962L64.1456 44.5795H64.5547C65.6797 42.142 67.1882 40.3011 69.0803 39.0568C70.9893 37.7955 73.0433 37.1648 75.2422 37.1648C75.7876 37.1648 76.3587 37.1989 76.9553 37.267C77.5689 37.3182 78.1143 37.4034 78.5916 37.5227L76.9553 47.2131C76.478 47.0426 75.7962 46.9062 74.9098 46.804C74.0405 46.6847 73.2138 46.625 72.4297 46.625C70.8445 46.625 69.37 46.9744 68.0064 47.6733C66.6428 48.3551 65.4922 49.3097 64.5547 50.5369C63.6342 51.7642 63.0291 53.179 62.7393 54.7812L59.0831 77H48.1911ZM155.335 37.7273L153.979 45.9091H129.741L131.096 37.7273H155.335ZM130.073 77L137.104 34.8892C137.565 32.0426 138.502 29.6818 139.917 27.8068C141.349 25.9318 143.113 24.5256 145.21 23.5881C147.323 22.6506 149.607 22.1818 152.062 22.1818C153.732 22.1818 155.241 22.3097 156.587 22.5653C157.951 22.821 158.94 23.0511 159.553 23.2557L156.306 31.4375C155.897 31.3011 155.394 31.1733 154.798 31.054C154.201 30.9347 153.57 30.875 152.906 30.875C151.32 30.875 150.153 31.25 149.403 32C148.67 32.733 148.175 33.7642 147.92 35.0938L140.94 77H130.073ZM155.418 77L161.963 37.7273H172.855L166.31 77H155.418ZM168.534 32.6136C166.915 32.6136 165.577 32.0767 164.52 31.0028C163.48 29.9119 163.054 28.6165 163.241 27.1165C163.429 25.5824 164.162 24.2869 165.44 23.2301C166.719 22.1562 168.168 21.6193 169.787 21.6193C171.406 21.6193 172.727 22.1562 173.75 23.2301C174.773 24.2869 175.199 25.5824 175.028 27.1165C174.858 28.6165 174.134 29.9119 172.855 31.0028C171.594 32.0767 170.153 32.6136 168.534 32.6136ZM194.62 24.6364L185.927 77H175.035L183.728 24.6364H194.62ZM212.447 77.767C208.425 77.767 205.092 76.9489 202.45 75.3125C199.808 73.6591 197.95 71.3239 196.876 68.3068C195.82 65.2727 195.641 61.6847 196.339 57.5426C197.021 53.5028 198.393 49.9574 200.456 46.9062C202.536 43.8551 205.143 41.4773 208.28 39.7727C211.416 38.0682 214.911 37.2159 218.763 37.2159C221.354 37.2159 223.697 37.6335 225.794 38.4688C227.908 39.2869 229.663 40.5312 231.061 42.2017C232.459 43.8551 233.413 45.9261 233.925 48.4148C234.453 50.9034 234.445 53.8182 233.899 57.1591L233.413 60.1506H200.277L201.325 53.4006H224.234C224.49 51.8324 224.388 50.4432 223.928 49.233C223.467 48.0227 222.7 47.0767 221.626 46.3949C220.553 45.696 219.232 45.3466 217.663 45.3466C216.061 45.3466 214.561 45.7386 213.163 46.5227C211.766 47.3068 210.589 48.3381 209.635 49.6165C208.697 50.8778 208.092 52.25 207.82 53.733L206.618 60.4318C206.277 62.4943 206.345 64.2074 206.822 65.571C207.317 66.9347 208.169 67.9574 209.379 68.6392C210.589 69.304 212.124 69.6364 213.982 69.6364C215.192 69.6364 216.325 69.4659 217.382 69.125C218.456 68.7841 219.411 68.2812 220.246 67.6165C221.081 66.9347 221.763 66.0909 222.291 65.0852L232.237 65.75C231.317 68.1705 229.919 70.2841 228.044 72.0909C226.169 73.8807 223.911 75.2784 221.268 76.2841C218.643 77.2727 215.703 77.767 212.447 77.767ZM275.058 48.9261L265.163 49.5398C265.112 48.6705 264.873 47.8949 264.447 47.2131C264.038 46.5142 263.433 45.9602 262.631 45.5511C261.847 45.142 260.859 44.9375 259.665 44.9375C257.876 44.9375 256.282 45.3466 254.884 46.1648C253.487 46.983 252.694 48.0312 252.506 49.3097C252.353 50.1278 252.566 50.8182 253.146 51.3807C253.725 51.9432 254.893 52.4205 256.648 52.8125L263.552 54.2443C267.234 55.0284 269.893 56.3324 271.529 58.1562C273.183 59.9801 273.771 62.3665 273.293 65.3153C272.867 67.821 271.768 70.0114 269.995 71.8864C268.222 73.7443 265.972 75.1932 263.245 76.233C260.518 77.2557 257.492 77.767 254.168 77.767C248.833 77.767 244.776 76.6761 241.998 74.4943C239.219 72.3125 237.881 69.3551 237.984 65.6222L248.62 65.0597C248.705 66.6619 249.268 67.8722 250.308 68.6903C251.347 69.4915 252.771 69.9006 254.577 69.9176C256.606 69.9517 258.327 69.5341 259.742 68.6648C261.174 67.7784 261.984 66.7045 262.171 65.4432C262.308 64.5568 262.052 63.8409 261.404 63.2955C260.773 62.75 259.614 62.2983 257.927 61.9403L251.381 60.5852C247.665 59.8182 244.998 58.446 243.379 56.4688C241.759 54.4915 241.205 51.9773 241.717 48.9261C242.126 46.4886 243.14 44.4006 244.759 42.6619C246.396 40.9062 248.501 39.5597 251.075 38.6222C253.665 37.6847 256.589 37.2159 259.844 37.2159C264.941 37.2159 268.776 38.2642 271.35 40.3608C273.941 42.4574 275.177 45.3125 275.058 48.9261Z" fill="#101828"/>
<path fill-rule="evenodd" clip-rule="evenodd" d="M97.2277 44.8641C98.2939 44.8641 99.36 44.9731 100.426 45.1912L99.1395 48.6793C98.5512 48.6066 97.9262 48.5703 97.3012 48.5703C95.7203 48.5703 94.213 48.8247 92.7792 49.3333L92.1909 45.6272C93.7718 45.1185 95.463 44.8641 97.2277 44.8641ZM95.2424 68.0458C94.6909 67.1011 94.2497 66.1201 93.9189 65.139L97.6321 64.485C97.8527 65.03 98.11 65.5751 98.4409 66.0837C99.213 67.4645 100.206 68.6272 101.345 69.5719L98.4409 71.9337C97.1909 70.8436 96.1247 69.5356 95.2424 68.0458ZM125.5 61.9052C125.389 62.7046 125.242 63.4676 125.059 64.2307L123.441 63.5403C123.625 62.8863 123.809 62.2322 123.919 61.5782L125.5 61.9052ZM123.294 68.2638C122.816 69.0995 122.228 69.8626 121.566 70.5893L120.022 68.9542C120.61 68.4092 121.125 67.7915 121.603 67.1375L123.294 68.2638ZM118.735 73.0964C118.331 73.3871 117.926 73.6777 117.485 73.9321C116.713 74.3681 115.904 74.7315 115.095 75.0221L114.36 72.297C115.316 72.0063 116.309 71.6067 117.228 71.0616C117.375 70.989 117.485 70.9163 117.632 70.8436L118.735 73.0964ZM112.154 75.8215C110.463 76.1122 108.735 76.1485 107.044 75.8942L108.11 72.6967C109.47 72.951 110.904 72.951 112.338 72.7694L112.154 75.8215ZM105.206 75.5308L106.603 72.3697C105.022 71.9337 103.514 71.207 102.191 70.2259L99.6542 72.9147C101.309 74.1501 103.22 75.0221 105.206 75.5308ZM87.4483 73.8231C86.8233 73.3507 86.1983 72.842 85.6468 72.2607L87.0439 71.2433C87.5218 71.752 87.9997 72.2243 88.5512 72.6604L87.4483 73.8231ZM82.963 68.7725C82.5218 67.9368 82.1174 67.0285 81.7865 66.1201L83.9924 65.6114C84.213 66.3744 84.4703 67.1375 84.8012 67.8642L82.963 68.7725ZM81.0144 62.4502C80.9409 61.9416 80.9409 61.4692 80.9409 60.9605C80.9409 60.0521 81.0144 59.2164 81.1615 58.3444L83.9189 59.0711C83.6615 60.0521 83.5512 61.1059 83.5512 62.1596V62.5956L81.0144 62.4502ZM81.9336 55.4376C82.5218 53.8389 83.3674 52.3491 84.3968 51.0411L86.6762 53.5119C85.7939 54.6019 85.0586 55.801 84.5071 57.1453L81.9336 55.4376ZM85.6468 49.624L87.7056 52.4218C88.8821 51.2954 90.2792 50.3507 91.7865 49.6967L90.7203 46.2085C88.8086 47.0079 87.0806 48.1706 85.6468 49.624ZM116.529 58.1264C115.978 59.0711 115.353 59.9431 114.654 60.7062L112.228 57.872C112.595 57.3997 112.926 56.891 113.22 56.3823C114.029 55.0016 114.544 53.5845 114.838 52.1311L118.367 53.4392C118 55.0743 117.412 56.6367 116.529 58.1264ZM96.0512 35.3081C96.7865 34.981 97.5218 34.7267 98.2939 34.545L98.4777 36.2528C97.8159 36.3981 97.1542 36.5798 96.5292 36.8341L96.0512 35.3081ZM102.706 34C103.662 34 104.654 34.109 105.61 34.2907L104.948 36.4344C104.176 36.2164 103.367 36.1074 102.559 36.0348L102.706 34ZM109.213 35.4534C109.691 35.6714 110.132 35.8894 110.573 36.1438C111.345 36.5798 112.081 37.0885 112.742 37.6335L110.72 39.6319C109.985 38.9416 109.139 38.3239 108.184 37.7788C108.073 37.7062 107.926 37.6335 107.816 37.5608L109.213 35.4534ZM114.912 39.7409C116.014 41.049 116.897 42.5387 117.522 44.0648L114.213 44.7915C113.698 43.4834 113 42.248 112.117 41.1216L114.912 39.7409ZM118.147 45.8452C118.662 47.8073 118.845 49.8784 118.588 51.9131L114.985 51.0774C115.169 49.4423 115.059 47.8073 114.654 46.2449L118.147 45.8452Z" fill="#B8D344"/>
<path fill-rule="evenodd" clip-rule="evenodd" d="M89.4706 55.8736C90.0221 54.9652 90.6471 54.0932 91.3456 53.2938L93.7721 56.1279C93.4044 56.6003 93.0735 57.109 92.7427 57.654C91.9706 58.9984 91.4191 60.4518 91.1618 61.9052L87.6324 60.5608C88 58.9621 88.5882 57.3633 89.4706 55.8736ZM110.757 45.9905C111.309 46.9352 111.713 47.8799 112.081 48.8973L108.368 49.5513C108.147 49.0063 107.853 48.4613 107.559 47.9162C106.75 46.5719 105.757 45.4091 104.618 44.4281L107.559 42.1027C108.772 43.1927 109.875 44.5008 110.757 45.9905ZM80.5 52.0948C80.5735 51.3317 80.7206 50.5687 80.9412 49.8057L82.5588 50.496C82.3382 51.1137 82.1912 51.7678 82.0809 52.4581L80.5 52.0948ZM82.7059 45.7362C83.1838 44.9368 83.7721 44.1374 84.3971 43.4107L85.9412 45.0458C85.3897 45.6271 84.8382 46.2448 84.3971 46.8625L82.7059 45.7362ZM87.2279 40.9036C87.6324 40.6129 88.0735 40.3586 88.5147 40.1042C89.2868 39.6682 90.0588 39.2685 90.8677 38.9779L91.6397 41.703C90.6471 41.9937 89.6912 42.3933 88.7353 42.9384C88.625 43.011 88.4779 43.0837 88.3676 43.1564L87.2279 40.9036ZM93.8456 38.1785C95.5368 37.8878 97.2647 37.8515 98.9559 38.1058L97.8897 41.3033C96.4927 41.0853 95.0588 41.0489 93.6618 41.267L93.8456 38.1785ZM100.794 38.4692L99.3971 41.6303C100.978 42.0663 102.449 42.793 103.809 43.7741L106.346 41.0853C104.654 39.8862 102.779 38.9779 100.794 38.4692ZM108.772 69.1358C107.669 69.1358 106.603 69.0268 105.574 68.8452L106.86 65.3207C107.449 65.3934 108.074 65.466 108.662 65.466C110.279 65.466 111.787 65.1753 113.221 64.703L113.772 68.3728C112.191 68.8815 110.537 69.1358 108.772 69.1358ZM118.551 40.2132C119.176 40.6856 119.765 41.1943 120.316 41.7393L118.919 42.793C118.478 42.2843 117.963 41.812 117.449 41.376L118.551 40.2132ZM123 45.2638C123.478 46.0995 123.882 46.9715 124.213 47.8799L122.007 48.3886C121.787 47.6256 121.493 46.8625 121.162 46.1358L123 45.2638ZM124.985 51.5861C125.022 52.0584 125.059 52.5671 125.059 53.0758C125.059 53.9478 124.985 54.8199 124.838 55.6556L122.081 54.9289C122.301 53.9478 122.449 52.9305 122.449 51.8404C122.449 51.6951 122.449 51.5497 122.412 51.4044L124.985 51.5861ZM124.066 58.5987C123.478 60.1975 122.632 61.6872 121.603 62.9952L119.287 60.4881C120.206 59.3981 120.941 58.199 121.456 56.891L124.066 58.5987ZM120.316 64.376L118.257 61.6145C117.081 62.7409 115.721 63.6493 114.176 64.3033L115.279 67.8278C117.191 66.9921 118.882 65.8294 120.316 64.376ZM109.949 78.7283C109.213 79.0189 108.478 79.2733 107.706 79.4913L107.485 77.7472C108.147 77.6382 108.809 77.4202 109.471 77.2022L109.949 78.7283ZM103.294 80C102.301 80 101.346 79.891 100.39 79.7093L101.051 77.5656C101.824 77.7836 102.632 77.9289 103.404 78.0016L103.294 80ZM96.75 78.5466C96.3088 78.3286 95.8677 78.1106 95.4265 77.8562C94.6544 77.4202 93.9191 76.9115 93.2574 76.3665L95.2427 74.3681C96.0147 75.0584 96.8603 75.7125 97.7794 76.2212C97.9265 76.2938 98.0368 76.3665 98.1838 76.4392L96.75 78.5466ZM91.0882 74.2591C89.9485 72.951 89.1029 71.4976 88.4412 69.9352L91.7868 69.2085C92.2647 70.5166 92.9632 71.752 93.8824 72.8783L91.0882 74.2591ZM87.8529 68.1548C87.3015 66.1927 87.1544 64.158 87.375 62.0869L90.9779 62.9226C90.7941 64.5576 90.9412 66.1927 91.3456 67.7915L87.8529 68.1548Z" fill="#34A853"/>
</svg>
