<svg width="1128" height="375" viewBox="0 0 1128 375" fill="none" xmlns="http://www.w3.org/2000/svg">
<g filter="url(#filter0_ii_213_111)">
<rect y="92.4233" width="93.8788" height="93.8788" rx="46.9394" fill="#014751"/>
</g>
<g filter="url(#filter1_ii_213_111)">
<rect x="341.312" width="93.8788" height="93.8788" rx="46.9394" fill="#014751"/>
</g>
<g filter="url(#filter2_ii_213_111)">
<rect x="883.479" width="93.8788" height="93.8788" rx="46.9394" fill="#014751"/>
</g>
<path d="M26.1885 144.249C26.1885 140.185 26.6252 137.047 27.4886 134.836C28.362 132.615 29.5827 130.941 31.1706 129.796C32.7586 128.65 34.5252 128.083 36.4902 128.083C38.4752 128.083 40.2815 128.66 41.8892 129.806C43.497 130.961 44.7773 132.684 45.7201 134.985C46.663 137.286 47.1294 140.374 47.1294 144.259C47.1294 148.124 46.663 151.202 45.74 153.493C44.817 155.784 43.5367 157.507 41.9091 158.672C40.2815 159.838 38.4752 160.416 36.4902 160.416C34.5252 160.416 32.7685 159.848 31.1905 158.722C29.6224 157.597 28.3917 155.903 27.5085 153.672C26.6351 151.421 26.1885 148.283 26.1885 144.249ZM29.0865 144.299C29.0865 147.775 29.3941 150.405 30.0095 152.188C30.6248 153.971 31.5379 155.316 32.7487 156.242C33.9595 157.168 35.2397 157.626 36.5895 157.626C37.9492 157.626 39.2195 157.178 40.4005 156.272C41.5816 155.375 42.4748 154.021 43.0901 152.218C43.8543 150.026 44.2414 147.387 44.2414 144.299C44.2414 141.201 43.9039 138.661 43.2191 136.689C42.5343 134.716 41.5915 133.272 40.3906 132.356C39.1897 131.439 37.9194 130.981 36.5895 130.981C35.2298 130.981 33.9495 131.439 32.7487 132.356C31.5577 133.272 30.6446 134.617 30.0194 136.4C29.4041 138.173 29.0865 140.813 29.0865 144.299Z" fill="white"/>
<path d="M56.4093 128.849H62.4336V159.639H59.3867V131.857H54.5732L56.4093 128.849Z" fill="white"/>
<path d="M365.382 47.4793C365.382 43.4152 365.819 40.2774 366.682 38.0661C367.555 35.8448 368.776 34.1713 370.364 33.0258C371.952 31.8803 373.719 31.3125 375.684 31.3125C377.669 31.3125 379.475 31.8902 381.083 33.0358C382.69 34.1912 383.971 35.9145 384.914 38.2155C385.856 40.5165 386.323 43.6044 386.323 47.4892C386.323 51.3541 385.856 54.4321 384.933 56.7231C384.01 59.0142 382.73 60.7374 381.102 61.9029C379.475 63.0683 377.669 63.646 375.684 63.646C373.719 63.646 371.962 63.0783 370.384 61.9527C368.816 60.8271 367.585 59.1337 366.702 56.9024C365.819 54.6512 365.382 51.5135 365.382 47.4793ZM368.28 47.5291C368.28 51.0055 368.587 53.6352 369.203 55.4182C369.818 57.2012 370.731 58.546 371.942 59.4724C373.153 60.3987 374.433 60.8569 375.783 60.8569C377.143 60.8569 378.413 60.4087 379.594 59.5022C380.775 58.6058 381.668 57.2511 382.283 55.4481C383.048 53.2567 383.435 50.617 383.435 47.5291C383.435 44.4312 383.097 41.8911 382.413 39.9188C381.728 37.9466 380.785 36.5022 379.584 35.5858C378.383 34.6694 377.113 34.2112 375.783 34.2112C374.423 34.2112 373.143 34.6694 371.942 35.5858C370.751 36.5022 369.838 37.8469 369.213 39.63C368.597 41.403 368.28 44.0427 368.28 47.5291Z" fill="white"/>
<path d="M392.635 41.7022H389.697C389.777 38.6641 390.789 36.1739 392.734 34.2215C394.669 32.2691 397.071 31.293 399.92 31.293C402.738 31.293 405.021 32.2094 406.768 34.0322C408.514 35.8651 409.388 38.0166 409.388 40.4969C409.388 42.2401 408.971 43.8737 408.137 45.4077C407.303 46.9317 405.686 49.0036 403.294 51.6134L395.652 59.871H409.804V62.8394H388.973L400.694 50.1292C403.076 47.5692 404.614 45.6766 405.328 44.4415C406.043 43.2063 406.4 41.9014 406.4 40.5368C406.4 38.8036 405.755 37.3194 404.475 36.0643C403.185 34.8192 401.617 34.1916 399.751 34.1916C397.796 34.1916 396.158 34.849 394.858 36.1539C393.558 37.4887 392.813 39.3315 392.635 41.7022Z" fill="white"/>
<g filter="url(#filter3_ii_213_111)">
<rect x="599.576" y="280.883" width="93.8788" height="93.8788" rx="46.9394" fill="#014751"/>
</g>
<path d="M622.894 331.264C622.894 327.2 623.33 324.062 624.194 321.851C625.067 319.629 626.288 317.956 627.876 316.81C629.464 315.665 631.23 315.097 633.195 315.097C635.18 315.097 636.987 315.675 638.594 316.82C640.202 317.976 641.482 319.699 642.425 322C643.368 324.301 643.835 327.389 643.835 331.274C643.835 335.139 643.368 338.217 642.445 340.508C641.522 342.799 640.242 344.522 638.614 345.687C636.987 346.853 635.18 347.431 633.195 347.431C631.24 347.431 629.474 346.863 627.896 345.737C626.327 344.612 625.097 342.918 624.213 340.687C623.34 338.436 622.894 335.298 622.894 331.264ZM625.792 331.314C625.792 334.79 626.099 337.42 626.724 339.203C627.34 340.986 628.253 342.331 629.464 343.257C630.674 344.183 631.955 344.641 633.304 344.641C634.664 344.641 635.935 344.193 637.125 343.287C638.306 342.39 639.2 341.036 639.815 339.233C640.579 337.041 640.966 334.402 640.966 331.314C640.966 328.216 640.629 325.676 639.944 323.703C639.259 321.731 638.316 320.287 637.116 319.37C635.915 318.454 634.644 317.996 633.314 317.996C631.955 317.996 630.674 318.454 629.474 319.37C628.273 320.287 627.37 321.632 626.744 323.415C626.109 325.188 625.792 327.827 625.792 331.314Z" fill="white"/>
<path d="M650.861 322.996H647.735C648.301 320.456 649.392 318.503 651.01 317.139C652.618 315.774 654.523 315.087 656.727 315.087C658.324 315.087 659.813 315.455 661.203 316.182C662.582 316.919 663.654 317.906 664.418 319.141C665.172 320.386 665.56 321.681 665.56 323.036C665.56 325.685 664.249 327.787 661.619 329.331C663.088 329.929 664.299 330.805 665.252 331.971C666.582 333.604 667.257 335.427 667.257 337.449C667.257 339.192 666.8 340.856 665.877 342.44C664.964 344.023 663.714 345.249 662.126 346.115C660.538 346.982 658.771 347.41 656.806 347.41C654.166 347.41 651.963 346.643 650.196 345.119C648.43 343.595 647.278 341.344 646.732 338.385H649.74C650.266 340.378 651.03 341.822 652.012 342.718C653.273 343.844 654.89 344.412 656.846 344.412C659.069 344.412 660.855 343.744 662.205 342.4C663.555 341.065 664.23 339.491 664.23 337.688C664.23 336.493 663.892 335.367 663.217 334.321C662.542 333.275 661.639 332.489 660.508 331.961C659.376 331.433 657.62 331.104 655.238 330.974V328.146C656.637 328.146 657.918 327.896 659.079 327.398C660.23 326.9 661.074 326.273 661.59 325.506C662.116 324.739 662.374 323.902 662.374 322.996C662.374 321.661 661.838 320.495 660.776 319.519C659.714 318.543 658.364 318.055 656.736 318.055C655.417 318.055 654.275 318.424 653.312 319.171C652.34 319.948 651.526 321.213 650.861 322.996Z" fill="white"/>
<path d="M907.426 47.4695C907.426 43.4054 907.862 40.2677 908.726 38.0563C909.599 35.835 910.82 34.1616 912.408 33.016C913.996 31.8705 915.762 31.3027 917.728 31.3027C919.712 31.3027 921.519 31.8805 923.127 33.026C924.734 34.1815 926.015 35.9047 926.957 38.2057C927.9 40.5067 928.367 43.5947 928.367 47.4795C928.367 51.3444 927.9 54.4223 926.977 56.7134C926.054 59.0044 924.774 60.7277 923.146 61.8931C921.519 63.0585 919.712 63.6363 917.728 63.6363C915.772 63.6363 914.006 63.0685 912.428 61.9429C910.86 60.8173 909.629 59.1239 908.746 56.8927C907.872 54.6415 907.426 51.5037 907.426 47.4695ZM910.324 47.5193C910.324 50.9957 910.631 53.6254 911.257 55.4085C911.872 57.1915 912.785 58.5362 913.996 59.4626C915.207 60.389 916.487 60.8472 917.837 60.8472C919.196 60.8472 920.467 60.3989 921.658 59.4925C922.839 58.596 923.732 57.2413 924.347 55.4383C925.111 53.2469 925.499 50.6072 925.499 47.5193C925.499 44.4214 925.161 41.8814 924.476 39.9091C923.791 37.9368 922.849 36.4924 921.648 35.576C920.447 34.6596 919.177 34.2014 917.847 34.2014C916.487 34.2014 915.207 34.6596 914.006 35.576C912.805 36.4924 911.902 37.8372 911.277 39.6202C910.641 41.3933 910.324 44.0329 910.324 47.5193Z" fill="white"/>
<path d="M947.928 31.293H948.554V52.769H952.265V55.6975H948.554V62.8595H945.507V55.6975H930.828L947.928 31.293ZM945.507 52.769V39.8296L936.416 52.759H945.507V52.769Z" fill="white"/>
<path d="M299.205 128.928C298.708 127.643 299.343 126.199 300.624 125.701C301.894 125.203 303.333 125.84 303.829 127.125C304.326 128.4 303.69 129.844 302.42 130.342C302.122 130.462 301.815 130.522 301.517 130.522C300.525 130.522 299.582 129.914 299.205 128.928ZM292.297 113.917C291.642 112.702 292.089 111.197 293.299 110.54C294.5 109.893 296.009 110.341 296.654 111.546V111.556C297.309 112.761 296.862 114.265 295.652 114.923C295.274 115.132 294.877 115.222 294.48 115.222C293.597 115.222 292.744 114.753 292.297 113.917ZM57.4306 108.368C56.2595 107.651 55.8923 106.117 56.6069 104.942C57.3215 103.776 58.8499 103.408 60.021 104.125C61.1921 104.842 61.5593 106.376 60.8348 107.552C60.3683 108.319 59.5545 108.737 58.7208 108.737C58.2742 108.737 57.8276 108.618 57.4306 108.368ZM283.583 99.8718C282.789 98.7562 283.057 97.2022 284.169 96.4054C285.29 95.6085 286.838 95.8675 287.632 96.9931C288.426 98.1087 288.168 99.6626 287.047 100.459C286.61 100.768 286.104 100.918 285.608 100.918C284.834 100.918 284.069 100.559 283.583 99.8718ZM66.8094 94.4032C65.7376 93.5466 65.5589 91.9827 66.4124 90.9069C67.266 89.8311 68.8241 89.6518 69.896 90.5085C70.9678 91.3651 71.1465 92.929 70.293 94.0048C70.293 94.0048 70.293 94.0048 70.293 94.0147C69.8067 94.6323 69.0822 94.9511 68.3477 94.9511C67.8118 94.9511 67.266 94.7718 66.8094 94.4032ZM273.232 87.0122C272.309 85.9962 272.378 84.4223 273.391 83.4959C274.393 82.5696 275.961 82.6393 276.894 83.6553C277.817 84.6614 277.747 86.2452 276.735 87.1716C276.259 87.6098 275.663 87.819 275.058 87.819C274.393 87.819 273.718 87.5501 273.232 87.0122ZM77.8258 81.703C76.8631 80.7168 76.8829 79.143 77.8655 78.1768C78.8381 77.2106 80.4161 77.2305 81.3689 78.2166C82.3315 79.1928 82.3117 80.7766 81.3292 81.7329C80.8528 82.211 80.2275 82.45 79.6023 82.45C78.9572 82.45 78.3121 82.201 77.8258 81.703ZM261.382 75.5272C260.34 74.6307 260.221 73.0569 261.114 72.011C261.997 70.975 263.565 70.8455 264.607 71.742C265.649 72.6285 265.768 74.2024 264.885 75.2483C264.389 75.826 263.694 76.1248 262.99 76.1248C262.424 76.1248 261.848 75.9256 261.382 75.5272ZM90.3109 70.4471C89.4773 69.3514 89.6857 67.7875 90.7774 66.9508C91.8592 66.1141 93.4174 66.3232 94.251 67.4189C95.0847 68.5147 94.8763 70.0785 93.7846 70.9152C93.338 71.2539 92.812 71.4233 92.2859 71.4233C91.5416 71.4233 90.7973 71.0846 90.3109 70.4471ZM248.232 65.5861C247.08 64.8291 246.773 63.2851 247.527 62.1297C248.281 60.9842 249.82 60.6754 250.961 61.4324C252.102 62.1894 252.42 63.7334 251.666 64.8789C251.189 65.6061 250.395 65.9945 249.591 65.9945C249.125 65.9945 248.648 65.865 248.232 65.5861ZM104.076 60.8148C103.382 59.6195 103.779 58.0955 104.97 57.3982V57.4082C106.151 56.7109 107.669 57.1093 108.364 58.2947C109.049 59.4801 108.652 61.0041 107.471 61.7013C107.084 61.9304 106.647 62.04 106.22 62.04C105.367 62.04 104.543 61.6017 104.076 60.8148ZM233.96 57.3484C232.729 56.7308 232.233 55.2367 232.839 54.0015C233.444 52.7763 234.933 52.2683 236.163 52.8859C237.394 53.4935 237.89 54.9877 237.285 56.2228C236.848 57.0994 235.975 57.6074 235.062 57.6074C234.685 57.6074 234.307 57.5177 233.96 57.3484ZM118.924 52.9457C118.378 51.6806 118.963 50.2163 120.224 49.6785C121.484 49.1406 122.943 49.7183 123.489 50.9833C124.025 52.2484 123.439 53.7126 122.179 54.2605C121.861 54.39 121.534 54.4597 121.206 54.4597C120.244 54.4597 119.331 53.8919 118.924 52.9457ZM218.795 50.9335C217.495 50.4853 216.81 49.0609 217.267 47.7659C217.713 46.471 219.133 45.7837 220.423 46.232C221.723 46.6902 222.398 48.1146 221.951 49.4095C221.594 50.4355 220.631 51.073 219.609 51.073C219.341 51.073 219.063 51.0331 218.795 50.9335ZM134.624 46.989C134.247 45.6741 135.002 44.2896 136.322 43.9111C137.641 43.5325 139.011 44.2896 139.398 45.6144C139.775 46.9392 139.011 48.3138 137.701 48.6923C137.463 48.762 137.235 48.7919 137.006 48.7919C135.934 48.7919 134.942 48.0847 134.624 46.989ZM202.936 46.4611C201.596 46.1722 200.742 44.8573 201.03 43.5027C201.318 42.1579 202.638 41.3112 203.978 41.6001C205.318 41.889 206.171 43.2038 205.883 44.5585C205.635 45.7239 204.603 46.5208 203.462 46.5208C203.283 46.5208 203.114 46.5009 202.936 46.4611ZM150.94 43.0444C150.732 41.6798 151.655 40.4048 153.005 40.1956C154.365 39.9765 155.635 40.9028 155.843 42.2675C156.062 43.6222 155.139 44.8972 153.779 45.1163C153.65 45.1363 153.521 45.1462 153.392 45.1462C152.191 45.1462 151.139 44.2696 150.94 43.0444ZM186.649 44.0007C185.29 43.8812 184.277 42.6659 184.396 41.3013C184.516 39.9267 185.726 38.9106 187.086 39.0401C188.456 39.1597 189.458 40.3649 189.339 41.7396C189.23 43.0345 188.138 44.0107 186.868 44.0107C186.798 44.0107 186.719 44.0007 186.649 44.0007ZM167.614 41.1419C167.574 39.7673 168.646 38.6118 170.016 38.572C171.385 38.5222 172.536 39.598 172.576 40.9726C172.626 42.3472 171.554 43.5027 170.184 43.5525C170.155 43.5525 170.125 43.5525 170.095 43.5525C168.765 43.5525 167.664 42.4866 167.614 41.1419Z" fill="#014751"/>
<path d="M449.679 334.98C449.6 333.606 450.642 332.43 452.002 332.341C453.371 332.261 454.552 333.307 454.632 334.672C454.721 336.046 453.679 337.232 452.309 337.311C452.26 337.311 452.21 337.321 452.161 337.321C450.86 337.321 449.759 336.305 449.679 334.98ZM434.931 337.311C433.562 337.222 432.53 336.036 432.609 334.662C432.698 333.297 433.869 332.251 435.239 332.331C436.609 332.421 437.651 333.606 437.561 334.98C437.482 336.295 436.39 337.311 435.09 337.311C435.041 337.311 434.981 337.311 434.931 337.311ZM466.66 333.168C466.402 331.823 467.286 330.518 468.635 330.259C469.985 330.01 471.275 330.897 471.533 332.241C471.791 333.596 470.908 334.901 469.558 335.15C469.4 335.19 469.251 335.2 469.092 335.2C467.921 335.2 466.879 334.363 466.66 333.168ZM417.682 335.14C416.343 334.881 415.459 333.576 415.717 332.221C415.965 330.877 417.266 329.99 418.615 330.239C419.955 330.498 420.838 331.803 420.59 333.148C420.362 334.343 419.32 335.18 418.149 335.18C418 335.18 417.841 335.16 417.682 335.14ZM483.294 329.233C482.867 327.918 483.582 326.514 484.882 326.095C486.182 325.667 487.582 326.384 488.008 327.699C488.435 329.004 487.721 330.408 486.41 330.837C486.162 330.916 485.904 330.956 485.646 330.956C484.604 330.956 483.632 330.289 483.294 329.233ZM400.85 330.807C399.54 330.379 398.826 328.974 399.252 327.659C399.679 326.354 401.079 325.637 402.379 326.065C403.679 326.494 404.393 327.898 403.976 329.203C403.629 330.259 402.657 330.926 401.614 330.926C401.356 330.926 401.098 330.887 400.85 330.807ZM499.283 323.217C498.707 321.971 499.233 320.487 500.474 319.9C501.714 319.312 503.193 319.85 503.779 321.095C504.364 322.34 503.828 323.824 502.588 324.402C502.25 324.571 501.893 324.641 501.536 324.641C500.603 324.641 499.709 324.113 499.283 323.217ZM384.683 324.372C383.442 323.784 382.916 322.3 383.502 321.055C384.088 319.81 385.566 319.282 386.797 319.87C388.038 320.457 388.573 321.932 387.988 323.177C387.561 324.083 386.668 324.611 385.745 324.611C385.388 324.611 385.03 324.531 384.683 324.372ZM514.398 315.228C513.663 314.062 514.011 312.529 515.162 311.791C516.313 311.054 517.852 311.393 518.586 312.558C519.321 313.714 518.983 315.248 517.822 315.995C517.415 316.254 516.949 316.383 516.492 316.383C515.678 316.383 514.874 315.975 514.398 315.228ZM369.469 315.955C368.307 315.218 367.97 313.674 368.704 312.519C369.439 311.353 370.977 311.014 372.128 311.752C373.29 312.489 373.627 314.033 372.893 315.188C372.416 315.935 371.612 316.344 370.798 316.344C370.342 316.344 369.875 316.214 369.469 315.955ZM528.392 305.396C527.518 304.341 527.667 302.767 528.719 301.89C529.781 301.014 531.339 301.163 532.213 302.219C533.086 303.285 532.937 304.849 531.885 305.725C531.419 306.114 530.863 306.303 530.307 306.303C529.592 306.303 528.878 305.994 528.392 305.396ZM355.415 305.685C354.363 304.819 354.214 303.245 355.088 302.179C355.961 301.123 357.529 300.974 358.581 301.85C359.643 302.727 359.782 304.301 358.909 305.357C358.422 305.954 357.718 306.263 357.003 306.263C356.438 306.263 355.882 306.074 355.415 305.685ZM541.055 293.902C540.053 292.955 540.003 291.381 540.946 290.375C541.879 289.379 543.447 289.329 544.45 290.266C545.452 291.212 545.502 292.786 544.559 293.792C544.073 294.31 543.408 294.569 542.753 294.569C542.137 294.569 541.532 294.35 541.055 293.902ZM342.751 293.742C341.809 292.746 341.858 291.172 342.861 290.226C343.853 289.28 345.431 289.329 346.364 290.336C347.307 291.342 347.257 292.915 346.255 293.852C345.778 294.31 345.163 294.529 344.558 294.529C343.893 294.529 343.238 294.27 342.751 293.742ZM552.181 280.912C551.079 280.096 550.831 278.542 551.645 277.426C551.645 277.426 551.645 277.426 551.635 277.426C552.449 276.311 553.997 276.071 555.109 276.878C556.21 277.695 556.458 279.249 555.645 280.365C555.158 281.032 554.404 281.381 553.64 281.381C553.134 281.381 552.628 281.231 552.181 280.912ZM331.666 280.305C330.852 279.199 331.1 277.635 332.212 276.829C333.313 276.022 334.871 276.261 335.675 277.376C336.479 278.492 336.231 280.046 335.129 280.853C334.683 281.181 334.177 281.331 333.67 281.331C332.906 281.331 332.142 280.972 331.666 280.305ZM561.609 266.629C560.409 265.961 559.972 264.447 560.637 263.242C561.302 262.037 562.81 261.598 564.011 262.266C565.202 262.933 565.639 264.447 564.984 265.652C564.527 266.469 563.684 266.937 562.81 266.937C562.403 266.937 561.987 266.838 561.609 266.629ZM322.336 265.583C321.672 264.377 322.108 262.863 323.309 262.196C324.51 261.538 326.019 261.977 326.674 263.182C327.338 264.387 326.902 265.901 325.701 266.559C325.324 266.768 324.907 266.868 324.51 266.868C323.627 266.868 322.783 266.409 322.336 265.583ZM569.182 251.279C567.902 250.771 567.286 249.326 567.782 248.041C568.289 246.766 569.738 246.139 571.008 246.647C572.278 247.155 572.904 248.609 572.397 249.884C572.01 250.86 571.077 251.458 570.095 251.458C569.787 251.458 569.48 251.398 569.182 251.279ZM314.913 249.795C314.407 248.51 315.032 247.065 316.312 246.557C317.583 246.049 319.022 246.677 319.528 247.952C320.034 249.237 319.409 250.681 318.138 251.189C317.841 251.309 317.533 251.368 317.225 251.368C316.233 251.368 315.3 250.771 314.913 249.795Z" fill="#014751"/>
<path d="M591.247 129.33C589.967 128.822 589.341 127.378 589.847 126.093C590.354 124.818 591.793 124.19 593.073 124.698C594.343 125.206 594.969 126.65 594.462 127.925C594.075 128.902 593.142 129.499 592.16 129.499C591.852 129.499 591.545 129.449 591.247 129.33ZM842.727 127.846H842.717C842.211 126.561 842.836 125.116 844.106 124.608C845.387 124.1 846.826 124.728 847.332 126.003C847.838 127.278 847.213 128.732 845.942 129.23C845.645 129.36 845.327 129.41 845.029 129.41C844.037 129.41 843.104 128.812 842.727 127.846ZM598.244 113.691C597.043 113.024 596.606 111.51 597.261 110.304C597.926 109.099 599.435 108.661 600.636 109.328C601.836 109.986 602.273 111.5 601.608 112.705C601.162 113.532 600.308 114 599.435 114C599.028 114 598.621 113.9 598.244 113.691ZM835.571 112.645C834.906 111.44 835.343 109.926 836.544 109.259C837.745 108.591 839.253 109.029 839.918 110.235C840.573 111.44 840.137 112.954 838.946 113.621C838.559 113.831 838.152 113.93 837.745 113.93C836.871 113.93 836.028 113.462 835.571 112.645ZM607.136 99.0585C606.035 98.2517 605.786 96.6878 606.6 95.5822C606.6 95.5822 606.6 95.5822 606.59 95.5822C607.404 94.4665 608.952 94.2175 610.064 95.0244C611.166 95.8412 611.414 97.3951 610.61 98.5107C610.123 99.1781 609.369 99.5367 608.605 99.5367C608.089 99.5367 607.583 99.3773 607.136 99.0585ZM826.57 98.4609C825.766 97.3453 826.014 95.7913 827.115 94.9746C828.227 94.1677 829.775 94.4167 830.589 95.5224C831.393 96.638 831.145 98.1919 830.043 99.0087C829.597 99.3275 829.09 99.4769 828.584 99.4769C827.82 99.4769 827.056 99.1283 826.57 98.4609ZM617.795 85.6611C616.793 84.7148 616.743 83.1409 617.686 82.1349C618.619 81.1388 620.197 81.089 621.189 82.0253C622.192 82.9716 622.241 84.5454 621.299 85.5515C620.812 86.0695 620.157 86.3384 619.492 86.3384C618.887 86.3384 618.272 86.1093 617.795 85.6611ZM815.881 85.5117C814.938 84.5056 814.988 82.9318 815.99 81.9855C816.982 81.0491 818.551 81.089 819.493 82.095C820.436 83.1011 820.387 84.6749 819.384 85.6212C818.908 86.0695 818.293 86.2886 817.687 86.2886C817.022 86.2886 816.367 86.0296 815.881 85.5117ZM630.022 73.698C629.149 72.6421 629.298 71.0683 630.35 70.1917C630.35 70.1917 630.35 70.1917 630.35 70.2017C631.402 69.3152 632.97 69.4646 633.843 70.5204C634.717 71.5862 634.568 73.1501 633.516 74.0267V74.0366C633.049 74.4152 632.494 74.6044 631.938 74.6044C631.223 74.6044 630.519 74.2956 630.022 73.698ZM803.654 73.9968C802.602 73.1103 802.453 71.5464 803.326 70.4905C804.2 69.4247 805.768 69.2753 806.82 70.1618C806.82 70.1618 806.82 70.1618 806.82 70.1519C807.872 71.0284 808.021 72.6023 807.147 73.6581C806.661 74.2558 805.946 74.5646 805.232 74.5646C804.676 74.5646 804.12 74.3753 803.654 73.9968ZM643.639 63.3685C642.905 62.213 643.242 60.6691 644.403 59.9319C645.554 59.1948 647.093 59.5335 647.827 60.6989C648.562 61.8544 648.224 63.3984 647.063 64.1355C646.656 64.3944 646.19 64.5239 645.733 64.5239C644.919 64.5239 644.115 64.1155 643.639 63.3685ZM790.097 64.0956C788.935 63.3585 788.598 61.8245 789.332 60.6591C790.067 59.5036 791.605 59.155 792.756 59.8921C793.918 60.6292 794.255 62.1732 793.521 63.3286C793.054 64.0757 792.25 64.4841 791.427 64.4841C790.97 64.4841 790.513 64.3646 790.097 64.0956ZM658.437 54.8319C657.851 53.5868 658.377 52.1026 659.618 51.5149C660.858 50.9272 662.337 51.4651 662.922 52.7003C663.508 53.9454 662.972 55.4296 661.732 56.0173C661.394 56.1767 661.037 56.2564 660.68 56.2564C659.747 56.2564 658.853 55.7284 658.437 54.8319ZM775.408 55.9874C774.168 55.3997 773.642 53.9155 774.217 52.6704C774.803 51.4253 776.282 50.8974 777.522 51.4751C778.763 52.0628 779.299 53.547 778.713 54.7921C778.286 55.6886 777.393 56.2265 776.46 56.2265C776.113 56.2265 775.746 56.1468 775.408 55.9874ZM674.187 48.2179C673.76 46.913 674.475 45.5085 675.785 45.0802C677.085 44.6618 678.484 45.369 678.911 46.6839C679.328 47.9888 678.613 49.3933 677.313 49.8216C677.065 49.9013 676.807 49.9411 676.549 49.9411C675.497 49.9411 674.524 49.2737 674.187 48.2179ZM759.817 49.7917C758.516 49.3634 757.802 47.9589 758.219 46.654C758.645 45.3491 760.045 44.6319 761.345 45.0503C762.655 45.4786 763.37 46.8831 762.943 48.188C762.605 49.2438 761.633 49.9112 760.581 49.9112C760.333 49.9112 760.075 49.8714 759.817 49.7917ZM690.642 43.6657C690.394 42.311 691.277 41.0061 692.617 40.7472C693.967 40.4981 695.267 41.3847 695.525 42.7294C695.773 44.0841 694.89 45.389 693.55 45.6479C693.391 45.6778 693.232 45.6878 693.083 45.6878C691.912 45.6878 690.87 44.861 690.642 43.6657ZM743.57 45.628C742.22 45.369 741.337 44.0642 741.595 42.7194C741.843 41.3647 743.143 40.4782 744.493 40.7272C745.843 40.9862 746.726 42.2911 746.468 43.6358C746.24 44.8311 745.208 45.6679 744.036 45.6679C743.878 45.6679 743.729 45.6579 743.57 45.628ZM707.544 41.2153C707.464 39.8507 708.496 38.6653 709.866 38.5757C711.236 38.496 712.417 39.5319 712.496 40.9065C712.585 42.2811 711.543 43.4665 710.174 43.5462C710.124 43.5561 710.074 43.5561 710.015 43.5561C708.715 43.5561 707.623 42.5401 707.544 41.2153ZM726.936 43.5462C725.577 43.4565 724.535 42.2811 724.614 40.9065C724.703 39.5319 725.874 38.486 727.244 38.5757C728.614 38.6554 729.656 39.8407 729.566 41.2153C729.487 42.5302 728.395 43.5462 727.095 43.5462C727.045 43.5462 726.996 43.5462 726.936 43.5462Z" fill="#014751"/>
<path d="M995.549 344.98C995.469 343.606 996.502 342.43 997.871 342.341C999.241 342.261 1000.42 343.307 1000.5 344.672C1000.59 346.046 999.548 347.232 998.179 347.311C998.129 347.311 998.079 347.321 998.03 347.321C996.72 347.321 995.628 346.305 995.549 344.98ZM980.801 347.311C979.431 347.222 978.389 346.036 978.478 344.662C978.568 343.297 979.739 342.251 981.108 342.331C982.478 342.421 983.52 343.606 983.431 344.98C983.351 346.295 982.26 347.311 980.959 347.311C980.91 347.311 980.85 347.311 980.801 347.311ZM1012.53 343.168C1012.27 341.823 1013.16 340.518 1014.5 340.259C1015.85 340.01 1017.14 340.897 1017.4 342.241C1017.66 343.596 1016.78 344.901 1015.43 345.15C1015.27 345.19 1015.12 345.2 1014.96 345.2C1013.79 345.2 1012.75 344.363 1012.53 343.168ZM963.552 345.14C962.212 344.881 961.329 343.576 961.577 342.221C961.835 340.877 963.135 339.99 964.485 340.239C965.824 340.498 966.708 341.803 966.46 343.148C966.231 344.343 965.189 345.18 964.018 345.18C963.869 345.18 963.711 345.16 963.552 345.14ZM1029.15 339.233C1028.74 337.918 1029.45 336.514 1030.75 336.095C1032.06 335.667 1033.45 336.384 1033.88 337.699C1034.3 339.004 1033.59 340.408 1032.28 340.837C1032.03 340.916 1031.77 340.956 1031.52 340.956C1030.47 340.956 1029.5 340.289 1029.15 339.233ZM946.71 340.807C945.41 340.379 944.695 338.974 945.122 337.659C945.548 336.354 946.948 335.637 948.248 336.065C949.548 336.494 950.263 337.898 949.836 339.203C949.498 340.259 948.526 340.926 947.484 340.926C947.226 340.926 946.968 340.887 946.71 340.807ZM1045.15 333.217C1044.58 331.971 1045.1 330.487 1046.34 329.9C1047.58 329.312 1049.06 329.85 1049.65 331.095C1050.22 332.34 1049.7 333.824 1048.46 334.402C1048.12 334.571 1047.75 334.641 1047.4 334.641C1046.47 334.641 1045.58 334.113 1045.15 333.217ZM930.552 334.372C929.312 333.784 928.786 332.3 929.371 331.055C929.957 329.81 931.436 329.282 932.666 329.87C933.907 330.457 934.443 331.932 933.857 333.177C933.43 334.083 932.537 334.611 931.614 334.611C931.257 334.611 930.9 334.531 930.552 334.372ZM1060.27 325.228C1059.53 324.062 1059.88 322.529 1061.03 321.791C1062.19 321.054 1063.72 321.393 1064.46 322.558C1065.19 323.714 1064.85 325.248 1063.69 325.995C1063.28 326.254 1062.82 326.383 1062.36 326.383C1061.55 326.383 1060.74 325.975 1060.27 325.228ZM915.338 325.955C914.177 325.218 913.839 323.674 914.574 322.519C915.308 321.353 916.846 321.014 917.998 321.752C919.159 322.489 919.496 324.033 918.762 325.188C918.285 325.935 917.482 326.344 916.668 326.344C916.211 326.344 915.745 326.214 915.338 325.955ZM1074.26 315.396C1073.39 314.341 1073.54 312.767 1074.59 311.89C1075.65 311.014 1077.21 311.163 1078.08 312.229C1078.96 313.285 1078.81 314.849 1077.75 315.725C1077.29 316.114 1076.73 316.303 1076.18 316.303C1075.46 316.303 1074.75 315.994 1074.26 315.396ZM901.285 315.685C900.233 314.809 900.084 313.245 900.957 312.179C901.83 311.123 903.399 310.974 904.451 311.85C905.512 312.727 905.651 314.301 904.778 315.357C904.292 315.954 903.577 316.263 902.872 316.263C902.307 316.263 901.751 316.074 901.285 315.685ZM1086.92 303.902C1085.92 302.955 1085.87 301.381 1086.82 300.375C1087.75 299.379 1089.32 299.329 1090.32 300.266C1091.32 301.212 1091.37 302.786 1090.43 303.792C1089.94 304.31 1089.28 304.569 1088.62 304.569C1088.02 304.569 1087.4 304.35 1086.92 303.902ZM888.621 303.742C887.678 302.746 887.728 301.172 888.73 300.226C889.732 299.28 891.3 299.329 892.233 300.336C893.176 301.342 893.127 302.915 892.124 303.862C891.648 304.31 891.032 304.529 890.427 304.529C889.762 304.529 889.107 304.27 888.621 303.742ZM1098.05 290.912C1096.95 290.096 1096.7 288.542 1097.5 287.426C1098.32 286.311 1099.87 286.071 1100.98 286.878C1102.08 287.695 1102.33 289.249 1101.52 290.365C1101.04 291.032 1100.27 291.381 1099.51 291.381C1099 291.381 1098.5 291.231 1098.05 290.912ZM877.535 290.305H877.525C876.721 289.199 876.969 287.635 878.081 286.829C879.182 286.022 880.741 286.261 881.544 287.376C882.348 288.492 882.1 290.046 880.999 290.853C880.552 291.181 880.046 291.331 879.54 291.331C878.775 291.331 878.021 290.972 877.535 290.305ZM1107.48 276.629C1106.28 275.961 1105.84 274.447 1106.51 273.242C1107.17 272.037 1108.68 271.598 1109.88 272.266C1111.07 272.933 1111.52 274.447 1110.85 275.652C1110.4 276.469 1109.55 276.937 1108.68 276.937C1108.27 276.937 1107.86 276.838 1107.48 276.629ZM868.196 275.583C867.541 274.377 867.977 272.863 869.178 272.196C870.379 271.538 871.888 271.977 872.543 273.182C873.208 274.387 872.771 275.901 871.57 276.559C871.193 276.768 870.776 276.868 870.379 276.868C869.496 276.868 868.652 276.409 868.196 275.583ZM1115.04 261.279C1113.77 260.771 1113.15 259.326 1113.65 258.041C1114.16 256.766 1115.61 256.139 1116.88 256.647C1118.15 257.155 1118.77 258.609 1118.27 259.884C1117.88 260.86 1116.95 261.458 1115.96 261.458C1115.66 261.458 1115.35 261.398 1115.04 261.279ZM860.782 259.795C860.276 258.51 860.901 257.065 862.172 256.557C863.452 256.049 864.891 256.677 865.397 257.952C865.903 259.237 865.278 260.681 864.008 261.189C863.7 261.309 863.392 261.368 863.095 261.368C862.102 261.368 861.169 260.771 860.782 259.795Z" fill="#014751"/>
<path d="M174.74 317.774C140.48 317.774 107.649 305.043 82.3217 281.934C57.1628 258.984 41.4223 227.727 37.9983 193.919C37.9189 193.102 38.5144 192.365 39.3282 192.286C40.142 192.206 40.8765 192.804 40.9559 193.62C47.9428 262.69 105.456 314.785 174.74 314.785C248.887 314.785 309.219 254.233 309.219 179.814C309.219 178.988 309.884 178.32 310.707 178.32C311.531 178.32 312.196 178.988 312.196 179.814C312.196 255.886 250.534 317.774 174.74 317.774Z" fill="#014751"/>
<path d="M310.707 181.309C309.884 181.309 309.219 180.642 309.219 179.815C309.219 147.073 320.84 115.338 341.96 90.4451C342.496 89.8176 343.429 89.7379 344.054 90.2758C344.68 90.8137 344.759 91.75 344.223 92.3875C323.57 116.742 312.196 147.79 312.196 179.825C312.196 180.642 311.531 181.309 310.707 181.309Z" fill="#014751"/>
<path d="M573.602 182.381C572.828 182.381 572.204 181.706 572.204 180.87C572.204 105.621 515.544 44.3924 445.909 44.3924C441.119 44.3924 436.281 44.6845 431.556 45.2687C430.782 45.3694 430.092 44.7651 430.008 43.9392C429.925 43.1133 430.474 42.3579 431.239 42.2672C436.076 41.673 441.007 41.3809 445.909 41.3809C517.091 41.3809 575 103.959 575 180.88C575 181.706 574.376 182.381 573.602 182.381Z" fill="#014751"/>
<path d="M350.306 97.5569C349.909 97.5569 349.522 97.3976 349.235 97.0987L337.682 85.0759C337.335 84.7073 337.186 84.1894 337.305 83.6913C337.424 83.1933 337.782 82.7949 338.258 82.6255L357.164 75.9218C357.71 75.7226 358.326 75.872 358.732 76.2904C359.139 76.7087 359.258 77.3263 359.05 77.8742L351.696 96.6007C351.507 97.0788 351.1 97.4175 350.604 97.5171C350.495 97.547 350.396 97.5569 350.306 97.5569ZM341.424 84.6675L349.761 93.3435L355.07 79.8265L341.424 84.6675Z" fill="#014751"/>
<path d="M605.528 273.381C605.115 273.381 604.693 273.198 604.408 272.844C583.513 247.513 572 215.209 572 181.901C572 181.06 572.658 180.381 573.474 180.381C574.289 180.381 574.947 181.06 574.947 181.901C574.947 214.489 586.205 246.094 606.648 270.877C607.178 271.516 607.099 272.479 606.481 273.026C606.205 273.259 605.862 273.381 605.528 273.381Z" fill="#014751"/>
<path d="M721.243 337.381C714.889 337.381 708.506 336.858 702.259 335.836C701.461 335.7 700.906 334.848 701.013 333.917C701.13 332.986 701.86 332.327 702.658 332.463C708.768 333.463 715.015 333.974 721.233 333.974C793.929 333.974 853.081 264.934 853.081 180.084C853.081 179.142 853.733 178.381 854.54 178.381C855.348 178.381 856 179.142 856 180.084C856.01 266.819 795.554 337.381 721.243 337.381Z" fill="#014751"/>
<path d="M621.396 287.105C621.227 287.105 621.059 287.075 620.9 287.015L601.993 280.312C601.517 280.142 601.16 279.744 601.04 279.246C600.921 278.748 601.07 278.23 601.418 277.861L612.97 265.838C613.317 265.47 613.833 265.31 614.33 265.41C614.826 265.51 615.243 265.858 615.421 266.326L622.775 285.053C622.994 285.601 622.865 286.219 622.458 286.637C622.18 286.946 621.793 287.105 621.396 287.105ZM605.159 278.28L618.806 283.121L613.496 269.604L605.159 278.28Z" fill="#014751"/>
<path d="M854.578 181.309C853.754 181.309 853.089 180.642 853.089 179.815C853.089 147.073 864.711 115.338 885.83 90.4451C886.366 89.8176 887.299 89.7379 887.924 90.2758C888.55 90.8137 888.629 91.75 888.093 92.3875C867.44 116.742 856.066 147.79 856.066 179.825C856.066 180.642 855.401 181.309 854.578 181.309Z" fill="#014751"/>
<path d="M1126.51 194.381C1125.69 194.381 1125.03 193.653 1125.03 192.752C1125.03 111.639 1064.85 45.638 990.881 45.638C985.465 45.638 980.01 45.9963 974.664 46.702C973.852 46.7997 973.11 46.17 973.011 45.2797C972.912 44.3894 973.496 43.5751 974.308 43.4666C979.773 42.7391 985.347 42.3809 990.881 42.3809C1066.49 42.3809 1128 109.836 1128 192.752C1128 193.653 1127.34 194.381 1126.51 194.381Z" fill="#014751"/>
<path d="M894.177 97.5569C893.78 97.5569 893.393 97.3976 893.105 97.0987L881.552 85.0759C881.205 84.7073 881.056 84.1894 881.175 83.6913C881.294 83.1933 881.652 82.7949 882.128 82.6255L901.034 75.9218C901.58 75.7226 902.196 75.872 902.603 76.2904C903.009 76.7087 903.129 77.3263 902.92 77.8742L895.566 96.6007C895.377 97.0788 894.971 97.4175 894.474 97.5171C894.365 97.547 894.266 97.5569 894.177 97.5569ZM885.294 84.6675L893.631 93.3435L898.94 79.8265L885.294 84.6675Z" fill="#014751"/>
<path d="M39.2694 193.76C35.7164 193.76 32.8184 190.852 32.8184 187.286C32.8184 183.72 35.7164 180.811 39.2694 180.811C42.8224 180.811 45.7204 183.72 45.7204 187.286C45.7204 190.852 42.8224 193.76 39.2694 193.76ZM39.2694 183.8C37.3539 183.8 35.7957 185.363 35.7957 187.286C35.7957 189.208 37.3539 190.772 39.2694 190.772C41.1848 190.772 42.743 189.208 42.743 187.286C42.743 185.363 41.1848 183.8 39.2694 183.8Z" fill="#4C4C4C"/>
<path d="M426.329 51.3187C422.776 51.3187 419.878 48.4101 419.878 44.8442C419.878 41.2782 422.776 38.3696 426.329 38.3696C429.882 38.3696 432.78 41.2782 432.78 44.8442C432.78 48.4101 429.882 51.3187 426.329 51.3187ZM426.329 41.3579C424.413 41.3579 422.855 42.9217 422.855 44.8442C422.855 46.7666 424.413 48.3304 426.329 48.3304C428.244 48.3304 429.803 46.7666 429.803 44.8442C429.803 42.9217 428.244 41.3579 426.329 41.3579Z" fill="#4C4C4C"/>
<path d="M697.294 338.264C693.741 338.264 690.843 335.356 690.843 331.79C690.843 328.224 693.741 325.315 697.294 325.315C700.847 325.315 703.745 328.224 703.745 331.79C703.745 335.356 700.847 338.264 697.294 338.264ZM697.294 328.303C695.378 328.303 693.82 329.867 693.82 331.79C693.82 333.712 695.378 335.276 697.294 335.276C699.209 335.276 700.767 333.712 700.767 331.79C700.767 329.867 699.209 328.303 697.294 328.303Z" fill="#014751"/>
<path d="M969.206 51.3187C965.653 51.3187 962.755 48.4101 962.755 44.8442C962.755 41.2782 965.653 38.3696 969.206 38.3696C972.759 38.3696 975.657 41.2782 975.657 44.8442C975.657 48.4101 972.759 51.3187 969.206 51.3187ZM969.206 41.3579C967.29 41.3579 965.732 42.9217 965.732 44.8442C965.732 46.7666 967.29 48.3304 969.206 48.3304C971.121 48.3304 972.68 46.7666 972.68 44.8442C972.68 42.9217 971.121 41.3579 969.206 41.3579Z" fill="#014751"/>
<path d="M471.76 126.066H441.577C441.277 126.066 440.989 126.187 440.778 126.4C440.566 126.614 440.449 126.903 440.451 127.204L440.566 141.787C440.571 142.407 441.074 142.907 441.692 142.907H451.621C452.242 142.907 452.746 142.402 452.746 141.778C452.746 141.155 452.242 140.649 451.621 140.649H442.808L442.711 128.325H470.643L470.74 140.649H461.83C461.209 140.649 460.705 141.155 460.705 141.778C460.705 142.402 461.209 142.907 461.83 142.907H471.875C472.175 142.907 472.462 142.787 472.674 142.573C472.885 142.36 473.002 142.07 473 141.769L472.885 127.187C472.88 126.566 472.378 126.066 471.76 126.066Z" fill="#014751"/>
<path d="M457.784 141.345C457.603 140.908 457.157 140.623 456.685 140.649C456.217 140.674 455.805 141 455.669 141.449C455.534 141.892 455.692 142.393 456.06 142.673C456.441 142.964 456.971 142.981 457.37 142.716C457.813 142.422 457.985 141.836 457.784 141.345Z" fill="#014751"/>
<path d="M425.814 124.019C420.062 124.019 415.382 128.715 415.382 134.487C415.382 140.26 420.062 144.956 425.814 144.956C431.566 144.956 436.246 140.26 436.246 134.487C436.246 128.715 431.566 124.019 425.814 124.019ZM425.814 142.698C421.303 142.698 417.633 139.015 417.633 134.487C417.633 129.96 421.303 126.277 425.814 126.277C430.325 126.277 433.996 129.96 433.996 134.487C433.996 139.015 430.325 142.698 425.814 142.698Z" fill="#014751"/>
<path d="M425.814 99.3809C420.062 99.3809 415.382 104.077 415.382 109.85C415.382 115.622 420.062 120.318 425.814 120.318C431.566 120.318 436.246 115.622 436.246 109.85C436.246 104.077 431.566 99.3809 425.814 99.3809ZM425.814 118.06C421.303 118.06 417.633 114.377 417.633 109.85C417.633 105.322 421.303 101.639 425.814 101.639C430.325 101.639 433.996 105.322 433.996 109.85C433.996 114.377 430.325 118.06 425.814 118.06Z" fill="#014751"/>
<path d="M428.754 106.9C428.315 106.459 427.602 106.459 427.162 106.9L425.814 108.253L424.466 106.9C424.027 106.459 423.314 106.459 422.875 106.9C422.435 107.34 422.435 108.055 422.874 108.496L424.223 109.85L422.874 111.203C422.435 111.644 422.435 112.359 422.875 112.8C423.094 113.021 423.382 113.131 423.67 113.131C423.958 113.131 424.246 113.021 424.466 112.8L425.814 111.447L427.162 112.8C427.382 113.021 427.67 113.131 427.958 113.131C428.246 113.131 428.534 113.021 428.754 112.8C429.193 112.359 429.193 111.644 428.754 111.203L427.405 109.85L428.754 108.496C429.193 108.056 429.193 107.341 428.754 106.9Z" fill="#014751"/>
<path d="M441.692 118.271H471.875C472.175 118.271 472.462 118.151 472.674 117.937C472.885 117.723 473.002 117.434 473 117.133L472.885 102.551C472.88 101.931 472.378 101.431 471.76 101.431H441.577C441.277 101.431 440.989 101.551 440.778 101.765C440.566 101.978 440.449 102.268 440.451 102.569L440.566 117.151C440.571 117.771 441.074 118.271 441.692 118.271ZM470.643 103.689L470.74 116.013H442.808L442.711 103.689H470.643Z" fill="#014751"/>
<path d="M448.641 108.602H466.85C467.472 108.602 467.976 108.096 467.976 107.473C467.976 106.849 467.472 106.344 466.85 106.344H448.641C448.02 106.344 447.516 106.849 447.516 107.473C447.516 108.096 448.02 108.602 448.641 108.602Z" fill="#014751"/>
<path d="M448.641 113.356H460.374C460.996 113.356 461.5 112.85 461.5 112.227C461.5 111.603 460.996 111.098 460.374 111.098H448.641C448.02 111.098 447.516 111.603 447.516 112.227C447.516 112.85 448.02 113.356 448.641 113.356Z" fill="#014751"/>
<path d="M448.641 133.602H466.85C467.472 133.602 467.976 133.097 467.976 132.473C467.976 131.85 467.472 131.344 466.85 131.344H448.641C448.02 131.344 447.516 131.85 447.516 132.473C447.516 133.097 448.02 133.602 448.641 133.602Z" fill="#014751"/>
<path d="M461.5 137.227C461.5 136.604 460.996 136.098 460.374 136.098H448.641C448.02 136.098 447.516 136.604 447.516 137.227C447.516 137.851 448.02 138.357 448.641 138.357H460.374C460.996 138.357 461.5 137.851 461.5 137.227Z" fill="#014751"/>
<path d="M428.66 131.806C428.157 131.441 427.453 131.554 427.089 132.059L425.299 134.54L424.404 133.683C423.955 133.252 423.243 133.269 422.813 133.72C422.384 134.171 422.401 134.886 422.85 135.316L424.678 137.067C424.888 137.269 425.167 137.38 425.455 137.38C425.489 137.38 425.523 137.378 425.557 137.375C425.881 137.345 426.176 137.177 426.366 136.912L428.912 133.383C429.277 132.878 429.164 132.172 428.66 131.806Z" fill="#014751"/>
<path d="M704.599 138.184H689.821C686.425 138.184 683.664 135.598 683.664 132.421V104.756C683.664 101.579 686.425 98.9922 689.821 98.9922H726.765C730.161 98.9922 732.922 101.579 732.922 104.756V113.977C732.922 114.616 732.371 115.13 731.691 115.13C731.011 115.13 730.459 114.616 730.459 113.977V104.756C730.459 102.849 728.802 101.298 726.765 101.298H689.821C687.785 101.298 686.127 102.849 686.127 104.756V132.421C686.127 134.327 687.785 135.879 689.821 135.879H704.599C705.279 135.879 705.83 136.395 705.83 137.032C705.83 137.668 705.279 138.184 704.599 138.184Z" fill="#014751"/>
<path d="M731.691 110.519H684.896C684.216 110.519 683.664 110.002 683.664 109.366C683.664 108.73 684.216 108.213 684.896 108.213H731.691C732.371 108.213 732.922 108.73 732.922 109.366C732.922 110.002 732.371 110.519 731.691 110.519Z" fill="#014751"/>
<path d="M694.747 105.908C694.067 105.908 693.516 105.392 693.516 104.756V95.5336C693.516 94.8973 694.067 94.3809 694.747 94.3809C695.427 94.3809 695.979 94.8973 695.979 95.5336V104.756C695.979 105.392 695.427 105.908 694.747 105.908Z" fill="#014751"/>
<path d="M721.839 105.908C721.159 105.908 720.607 105.392 720.607 104.756V95.5336C720.607 94.8973 721.159 94.3809 721.839 94.3809C722.519 94.3809 723.07 94.8973 723.07 95.5336V104.756C723.07 105.392 722.519 105.908 721.839 105.908Z" fill="#014751"/>
<path d="M724.302 140.489C723.975 140.489 723.662 140.367 723.431 140.153L718.505 135.542C718.024 135.092 718.024 134.362 718.505 133.912C718.985 133.463 719.766 133.463 720.246 133.912L724.241 137.651L731.994 129.357C732.442 128.875 733.221 128.829 733.73 129.248C734.243 129.668 734.294 130.396 733.846 130.876L725.226 140.097C725.002 140.337 724.682 140.48 724.342 140.489C724.329 140.489 724.317 140.489 724.302 140.489Z" fill="#014751"/>
<path d="M726.765 149.711C717.938 149.711 710.756 142.988 710.756 134.726C710.756 126.463 717.938 119.741 726.765 119.741C735.592 119.741 742.774 126.463 742.774 134.726C742.774 142.988 735.592 149.711 726.765 149.711ZM726.765 122.046C719.297 122.046 713.219 127.734 713.219 134.726C713.219 141.718 719.297 147.406 726.765 147.406C734.232 147.406 740.311 141.718 740.311 134.726C740.311 127.734 734.232 122.046 726.765 122.046Z" fill="#014751"/>
<path d="M172.662 109.782L168.142 106.186V99.8605C168.142 99.2658 167.661 98.7837 167.066 98.7837H163.838C163.244 98.7837 162.762 99.2658 162.762 99.8605V101.906L159.796 99.5482C159.013 98.923 157.901 98.923 157.119 99.5482L144.299 109.747C143.417 110.369 142.939 111.418 143.045 112.492C143.152 113.567 143.827 114.501 144.813 114.938C145.799 115.376 146.944 115.249 147.811 114.606L149.848 113.073V123.551C149.848 124.74 150.812 125.704 152.001 125.704H164.914C166.103 125.704 167.066 124.74 167.066 123.551V113.074L169.111 114.613C170.444 115.594 172.321 115.308 173.301 113.973C174.282 112.639 173.996 110.761 172.662 109.78V109.782ZM164.914 100.937H165.99V104.475L164.914 103.613V100.937ZM156.305 123.551V119.243H160.61V123.551H156.305ZM164.914 123.551H162.762V118.166C162.762 117.572 162.28 117.09 161.686 117.09H155.229C154.635 117.09 154.153 117.572 154.153 118.166V123.551H152.001V111.454L158.457 106.592L164.914 111.454V123.551ZM171.586 112.666C171.46 112.854 171.263 112.983 171.041 113.025C170.819 113.067 170.588 113.019 170.402 112.89L159.103 104.383C158.721 104.096 158.194 104.096 157.812 104.383L146.528 112.878C146.341 113.014 146.107 113.068 145.88 113.027C145.653 112.987 145.452 112.855 145.324 112.663C145.199 112.469 145.157 112.234 145.207 112.009C145.256 111.784 145.394 111.588 145.589 111.465L158.457 101.235L171.371 111.504C171.747 111.768 171.842 112.285 171.586 112.666Z" fill="#014751"/>
<path d="M155.104 111.739C155.104 113.505 156.53 114.936 158.29 114.936C160.049 114.936 161.476 113.505 161.476 111.739C161.476 109.974 160.049 108.542 158.29 108.542C156.53 108.542 155.104 109.974 155.104 111.739ZM159.352 111.739C159.352 112.328 158.876 112.805 158.29 112.805C157.703 112.805 157.228 112.328 157.228 111.739C157.228 111.151 157.703 110.674 158.29 110.674C158.876 110.674 159.352 111.151 159.352 111.739Z" fill="#014751"/>
<path d="M197.025 91.3809H143.366C140.404 91.3845 138.004 93.7926 138 96.7648V129.068C138.004 132.041 140.404 134.449 143.366 134.452H179.854V136.606H178.781C178.188 136.606 177.708 137.088 177.708 137.683V144.143C177.708 144.738 178.188 145.22 178.781 145.22H198.098C198.691 145.22 199.171 144.738 199.171 144.143V137.683C199.171 137.088 198.691 136.606 198.098 136.606H197.025V134.452C199.987 134.449 202.387 132.041 202.391 129.068V96.7648C202.387 93.7926 199.987 91.3845 197.025 91.3809ZM197.025 143.067H179.854V138.759H197.025V143.067ZM182 136.606V130.145C182.002 129.978 181.965 129.814 181.893 129.664L178.781 123.43V115.07C178.781 114.475 179.261 113.993 179.854 113.993C180.447 113.993 180.927 114.475 180.927 115.07V121.531H183.073V115.07C183.071 114.156 182.68 113.287 182 112.679V106.456C182 105.861 182.481 105.379 183.073 105.379C183.363 105.379 183.64 105.498 183.838 105.71C184.038 105.906 184.149 106.176 184.147 106.456V118.3H186.293V111.84C186.293 111.245 186.773 110.763 187.366 110.763C187.959 110.763 188.439 111.245 188.439 111.84V119.377H190.586V112.917C190.586 112.322 191.066 111.84 191.659 111.84C192.252 111.84 192.732 112.322 192.732 112.917V119.377H194.878V115.07C194.878 114.475 195.359 113.993 195.952 113.993C196.544 113.993 197.025 114.475 197.025 115.07V125.663L194.934 131.958C194.897 132.068 194.879 132.183 194.878 132.299V136.606H182ZM186.265 106.171C186.211 105.422 185.888 104.717 185.356 104.187C184.758 103.568 183.933 103.22 183.073 103.225C181.295 103.225 179.854 104.672 179.854 106.456H178.781C177.595 106.456 176.634 105.492 176.634 104.302C176.634 103.113 177.595 102.149 178.781 102.149H185.22C186.202 102.135 187.066 102.796 187.314 103.749C187.562 104.702 187.129 105.702 186.265 106.171ZM200.244 129.068C200.241 130.826 198.837 132.259 197.085 132.292L199.116 126.178C199.152 126.069 199.171 125.954 199.171 125.838V115.07C199.175 113.996 198.645 112.992 197.758 112.391C196.872 111.79 195.745 111.673 194.754 112.077C194.505 111.111 193.82 110.317 192.902 109.932C191.985 109.547 190.94 109.615 190.08 110.117C189.291 108.829 187.705 108.281 186.293 108.808V108.456C188.19 107.978 189.518 106.265 189.512 104.302C189.512 101.924 187.59 99.9951 185.22 99.9951H178.781C176.41 99.9951 174.488 101.924 174.488 104.302C174.488 106.681 176.41 108.609 178.781 108.609H179.854V111.84C178.076 111.84 176.634 113.286 176.634 115.07V123.684C176.633 123.851 176.669 124.016 176.742 124.165L179.854 130.399V132.299H143.366C141.588 132.299 140.146 130.852 140.146 129.068V96.7648C140.146 94.9808 141.588 93.5344 143.366 93.5344H193.805V108.609H195.952V93.5344H197.025C198.803 93.5344 200.244 94.9808 200.244 96.7648V129.068Z" fill="#014751"/>
<path opacity="0.926" fill-rule="evenodd" clip-rule="evenodd" d="M995.543 94.3809C1002.56 94.3931 1007.61 97.5327 1010.69 103.8C1012.95 109.764 1012.09 115.222 1008.12 120.175C1003.03 125.39 997.053 126.727 990.192 124.189C983.773 121.005 980.687 115.814 980.934 108.616C981.834 101.695 985.598 97.1466 992.225 94.9695C993.332 94.6871 994.438 94.4909 995.543 94.3809ZM995.543 96.0934C1001.17 96.0617 1005.47 98.4164 1008.44 103.157C1011.23 108.789 1010.7 114.07 1006.84 118.998C1002.93 123.129 998.206 124.538 992.654 123.226C987.772 121.663 984.579 118.434 983.074 113.539C981.802 107.939 983.282 103.211 987.516 99.3578C989.857 97.4419 992.533 96.3538 995.543 96.0934Z" fill="#014751"/>
<path opacity="0.925" fill-rule="evenodd" clip-rule="evenodd" d="M996.293 98.02C1002.04 98.3162 1005.88 101.17 1007.8 106.583C1008.75 110.151 1008.24 113.487 1006.25 116.59C1005.44 116.983 1004.94 116.751 1004.75 115.894C1007.34 111.575 1007.14 107.4 1004.16 103.372C1000.9 99.9233 997.034 98.9779 992.547 100.535C991.923 100.829 991.317 101.15 990.727 101.499C989.76 101.547 989.421 101.101 989.71 100.161C991.708 98.811 993.902 98.0975 996.293 98.02Z" fill="#014751"/>
<path opacity="0.933" fill-rule="evenodd" clip-rule="evenodd" d="M996.186 101.766C996.533 101.757 996.837 101.864 997.096 102.087C997.206 102.508 997.295 102.936 997.363 103.372C997.969 103.514 998.54 103.746 999.076 104.067C999.868 104.852 999.743 105.441 998.701 105.833C998.254 105.548 997.772 105.334 997.256 105.191C997.221 106.406 997.256 107.619 997.363 108.83C999.661 109.465 1000.64 110.963 1000.31 113.326C999.869 114.923 998.852 115.922 997.256 116.322C997.274 116.716 997.256 117.109 997.203 117.5C996.942 118.005 996.532 118.166 995.972 117.981C995.883 117.892 995.793 117.803 995.704 117.714C995.559 117.3 995.506 116.872 995.544 116.429C994.46 116.36 993.514 115.967 992.707 115.252C992.386 114.519 992.618 114.055 993.403 113.861C994.057 114.25 994.753 114.536 995.49 114.717C995.561 113.147 995.561 111.577 995.49 110.008C992.892 108.921 992.25 107.137 993.563 104.656C994.07 104.002 994.73 103.609 995.544 103.479C995.526 103.085 995.544 102.692 995.597 102.301C995.716 102.022 995.912 101.843 996.186 101.766ZM995.329 105.298C995.073 105.538 994.877 105.823 994.741 106.154C994.434 106.967 994.666 107.574 995.437 107.974C995.472 107.528 995.508 107.082 995.544 106.636C995.543 106.148 995.471 105.702 995.329 105.298ZM997.256 110.65C997.221 111.936 997.256 113.22 997.363 114.503C997.789 114.274 998.128 113.953 998.38 113.54C998.98 112.181 998.605 111.218 997.256 110.65Z" fill="#014751"/>
<path opacity="0.923" fill-rule="evenodd" clip-rule="evenodd" d="M987.303 102.408C988.434 102.459 988.737 102.994 988.212 104.014C985.785 107.602 985.607 111.313 987.677 115.145C990.226 118.925 993.776 120.513 998.327 119.908C999.212 119.708 1000.07 119.422 1000.9 119.052C1001.6 118.613 1002.31 118.202 1003.04 117.821C1003.76 117.951 1004.03 118.379 1003.84 119.105C1002.07 120.607 1000.01 121.481 997.685 121.727C991.71 122.027 987.553 119.44 985.215 113.968C984.025 110.291 984.417 106.794 986.393 103.479C986.674 103.09 986.977 102.733 987.303 102.408Z" fill="#014751"/>
<path opacity="0.938" fill-rule="evenodd" clip-rule="evenodd" d="M1023.8 131.307C1023.8 131.878 1023.8 132.448 1023.8 133.019C1023.6 133.691 1023.24 134.279 1022.73 134.785C1018.34 137.693 1013.92 140.547 1009.46 143.348C1008.91 143.591 1008.34 143.769 1007.75 143.883C1001.38 144.546 995.012 145.17 988.64 145.756C987.742 145.722 986.868 145.561 986.018 145.274C983.128 143.972 980.238 142.67 977.348 141.368C977.547 142.664 977.119 143.681 976.064 144.418C975.85 144.489 975.636 144.561 975.422 144.632C973.888 144.704 972.354 144.704 970.82 144.632C969.963 144.4 969.357 143.883 969 143.08C969 136.444 969 129.808 969 123.172C969.344 122.419 969.915 121.902 970.713 121.62C972.318 121.549 973.923 121.549 975.529 121.62C976.819 122.078 977.39 122.988 977.241 124.35C981.56 123.94 985.52 124.921 989.122 127.293C989.836 127.698 990.585 128.019 991.37 128.256C994.536 128.711 997.711 129.104 1000.9 129.434C1003.57 129.829 1005.11 131.363 1005.5 134.036C1005.47 134.27 1005.43 134.502 1005.39 134.732C1006.83 134.577 1008.22 134.238 1009.56 133.715C1012.75 132.174 1015.93 130.604 1019.09 129.006C1021.36 128.375 1022.93 129.142 1023.8 131.307ZM971.034 123.279C972.425 123.262 973.817 123.279 975.208 123.333C975.297 123.422 975.386 123.511 975.475 123.601C975.511 127.168 975.547 130.736 975.582 134.304C975.654 134.803 975.939 135.089 976.439 135.16C976.742 135.111 976.991 134.968 977.188 134.732C977.241 131.842 977.259 128.952 977.241 126.062C980.215 125.774 983.07 126.22 985.804 127.4C987.107 128.141 988.427 128.854 989.764 129.541C990.221 129.705 990.685 129.848 991.155 129.969C994.541 130.423 997.93 130.851 1001.32 131.253C1003.04 131.844 1003.82 133.039 1003.68 134.839C999.86 135.057 996.043 135.289 992.226 135.535C991.459 135.962 991.388 136.497 992.012 137.14C996.117 137.002 1000.22 136.788 1004.32 136.498C1006.55 136.44 1008.69 135.976 1010.74 135.106C1013.74 133.608 1016.74 132.11 1019.73 130.611C1020.8 130.265 1021.57 130.604 1022.03 131.628C1022.2 132.345 1022.04 132.969 1021.55 133.501C1017.53 136.063 1013.53 138.668 1009.56 141.314C1008.93 141.687 1008.25 141.972 1007.53 142.17C1001.08 142.869 994.622 143.476 988.159 143.99C987.571 143.914 987 143.772 986.446 143.562C983.422 142.185 980.39 140.83 977.348 139.495C977.262 138.879 977.208 138.255 977.188 137.622C977.039 137.315 976.789 137.172 976.439 137.193C975.917 137.18 975.632 137.43 975.582 137.943C975.547 139.513 975.511 141.082 975.475 142.652C975.379 142.781 975.254 142.87 975.101 142.92C973.781 142.991 972.461 142.991 971.141 142.92C970.862 142.82 970.702 142.623 970.659 142.331C970.588 136.195 970.588 130.058 970.659 123.922C970.719 123.666 970.844 123.452 971.034 123.279Z" fill="#014751"/>
<defs>
<filter id="filter0_ii_213_111" x="-10" y="82.4233" width="113.879" height="113.879" filterUnits="userSpaceOnUse" color-interpolation-filters="sRGB">
<feFlood flood-opacity="0" result="BackgroundImageFix"/>
<feBlend mode="normal" in="SourceGraphic" in2="BackgroundImageFix" result="shape"/>
<feColorMatrix in="SourceAlpha" type="matrix" values="0 0 0 0 0 0 0 0 0 0 0 0 0 0 0 0 0 0 127 0" result="hardAlpha"/>
<feOffset dx="10" dy="10"/>
<feGaussianBlur stdDeviation="10"/>
<feComposite in2="hardAlpha" operator="arithmetic" k2="-1" k3="1"/>
<feColorMatrix type="matrix" values="0 0 0 0 0 0 0 0 0 0 0 0 0 0 0 0 0 0 0.15 0"/>
<feBlend mode="normal" in2="shape" result="effect1_innerShadow_213_111"/>
<feColorMatrix in="SourceAlpha" type="matrix" values="0 0 0 0 0 0 0 0 0 0 0 0 0 0 0 0 0 0 127 0" result="hardAlpha"/>
<feOffset dx="-10" dy="-10"/>
<feGaussianBlur stdDeviation="10"/>
<feComposite in2="hardAlpha" operator="arithmetic" k2="-1" k3="1"/>
<feColorMatrix type="matrix" values="0 0 0 0 1 0 0 0 0 1 0 0 0 0 1 0 0 0 1 0"/>
<feBlend mode="normal" in2="effect1_innerShadow_213_111" result="effect2_innerShadow_213_111"/>
</filter>
<filter id="filter1_ii_213_111" x="331.312" y="-10" width="113.879" height="113.879" filterUnits="userSpaceOnUse" color-interpolation-filters="sRGB">
<feFlood flood-opacity="0" result="BackgroundImageFix"/>
<feBlend mode="normal" in="SourceGraphic" in2="BackgroundImageFix" result="shape"/>
<feColorMatrix in="SourceAlpha" type="matrix" values="0 0 0 0 0 0 0 0 0 0 0 0 0 0 0 0 0 0 127 0" result="hardAlpha"/>
<feOffset dx="10" dy="10"/>
<feGaussianBlur stdDeviation="10"/>
<feComposite in2="hardAlpha" operator="arithmetic" k2="-1" k3="1"/>
<feColorMatrix type="matrix" values="0 0 0 0 0 0 0 0 0 0 0 0 0 0 0 0 0 0 0.15 0"/>
<feBlend mode="normal" in2="shape" result="effect1_innerShadow_213_111"/>
<feColorMatrix in="SourceAlpha" type="matrix" values="0 0 0 0 0 0 0 0 0 0 0 0 0 0 0 0 0 0 127 0" result="hardAlpha"/>
<feOffset dx="-10" dy="-10"/>
<feGaussianBlur stdDeviation="10"/>
<feComposite in2="hardAlpha" operator="arithmetic" k2="-1" k3="1"/>
<feColorMatrix type="matrix" values="0 0 0 0 1 0 0 0 0 1 0 0 0 0 1 0 0 0 1 0"/>
<feBlend mode="normal" in2="effect1_innerShadow_213_111" result="effect2_innerShadow_213_111"/>
</filter>
<filter id="filter2_ii_213_111" x="873.479" y="-10" width="113.879" height="113.879" filterUnits="userSpaceOnUse" color-interpolation-filters="sRGB">
<feFlood flood-opacity="0" result="BackgroundImageFix"/>
<feBlend mode="normal" in="SourceGraphic" in2="BackgroundImageFix" result="shape"/>
<feColorMatrix in="SourceAlpha" type="matrix" values="0 0 0 0 0 0 0 0 0 0 0 0 0 0 0 0 0 0 127 0" result="hardAlpha"/>
<feOffset dx="10" dy="10"/>
<feGaussianBlur stdDeviation="10"/>
<feComposite in2="hardAlpha" operator="arithmetic" k2="-1" k3="1"/>
<feColorMatrix type="matrix" values="0 0 0 0 0 0 0 0 0 0 0 0 0 0 0 0 0 0 0.15 0"/>
<feBlend mode="normal" in2="shape" result="effect1_innerShadow_213_111"/>
<feColorMatrix in="SourceAlpha" type="matrix" values="0 0 0 0 0 0 0 0 0 0 0 0 0 0 0 0 0 0 127 0" result="hardAlpha"/>
<feOffset dx="-10" dy="-10"/>
<feGaussianBlur stdDeviation="10"/>
<feComposite in2="hardAlpha" operator="arithmetic" k2="-1" k3="1"/>
<feColorMatrix type="matrix" values="0 0 0 0 1 0 0 0 0 1 0 0 0 0 1 0 0 0 1 0"/>
<feBlend mode="normal" in2="effect1_innerShadow_213_111" result="effect2_innerShadow_213_111"/>
</filter>
<filter id="filter3_ii_213_111" x="589.576" y="270.883" width="113.879" height="113.879" filterUnits="userSpaceOnUse" color-interpolation-filters="sRGB">
<feFlood flood-opacity="0" result="BackgroundImageFix"/>
<feBlend mode="normal" in="SourceGraphic" in2="BackgroundImageFix" result="shape"/>
<feColorMatrix in="SourceAlpha" type="matrix" values="0 0 0 0 0 0 0 0 0 0 0 0 0 0 0 0 0 0 127 0" result="hardAlpha"/>
<feOffset dx="10" dy="10"/>
<feGaussianBlur stdDeviation="10"/>
<feComposite in2="hardAlpha" operator="arithmetic" k2="-1" k3="1"/>
<feColorMatrix type="matrix" values="0 0 0 0 0 0 0 0 0 0 0 0 0 0 0 0 0 0 0.15 0"/>
<feBlend mode="normal" in2="shape" result="effect1_innerShadow_213_111"/>
<feColorMatrix in="SourceAlpha" type="matrix" values="0 0 0 0 0 0 0 0 0 0 0 0 0 0 0 0 0 0 127 0" result="hardAlpha"/>
<feOffset dx="-10" dy="-10"/>
<feGaussianBlur stdDeviation="10"/>
<feComposite in2="hardAlpha" operator="arithmetic" k2="-1" k3="1"/>
<feColorMatrix type="matrix" values="0 0 0 0 1 0 0 0 0 1 0 0 0 0 1 0 0 0 1 0"/>
<feBlend mode="normal" in2="effect1_innerShadow_213_111" result="effect2_innerShadow_213_111"/>
</filter>
</defs>
</svg>
